<svg width="542" height="519" viewBox="0 0 542 519" fill="none" xmlns="http://www.w3.org/2000/svg">
<rect width="453" height="493" fill="#337D5A"/>
<path d="M380.2 220.024C466.117 219.235 541.116 284.068 541.4 368.76C541.683 450.427 472.213 518.68 380.625 518.812C286.769 519.075 219.142 448.849 219 369.549C218.858 285.515 293.433 219.235 380.2 220.024ZM433.933 411.763C435.635 412.815 435.918 413.21 436.344 413.341C462.856 418.733 488.801 417.155 514.604 409.265C518.29 408.081 519.708 405.714 520.417 402.558C526.797 378.36 526.372 354.426 518.716 330.622C517.581 327.072 516.022 325.625 511.769 326.546C493.763 330.622 475.332 331.412 456.901 329.702C451.939 329.307 449.812 330.491 447.969 334.568C442.865 346.667 436.06 357.845 427.27 368.102C426.419 369.155 425.994 370.601 425.001 372.442C437.052 372.311 446.126 376.125 449.103 386.645C452.364 398.481 446.693 406.766 433.933 411.763ZM236.155 357.845C235.872 360.869 235.304 363.237 235.446 365.472C236.155 375.072 237.289 384.673 237.998 394.273C238.282 399.139 241.117 401.374 245.796 403.084C281.382 415.577 316.826 415.577 352.27 402.821C356.098 401.374 359.784 399.533 364.179 397.692C362.62 396.114 361.769 395.062 360.777 394.273C350.143 385.725 341.353 375.861 333.414 365.078C329.302 359.554 329.302 359.554 321.93 361.133C303.074 365.078 284.076 365.735 264.936 363.105C255.72 361.79 246.505 359.817 236.155 357.845ZM435.918 493.299C434.217 491.984 433.65 491.458 433.083 491.195C412.1 484.751 400.474 470.811 397.497 450.953C396.079 441.09 396.504 430.964 396.646 420.837C396.646 418.076 396.221 416.366 393.527 415.051C388.99 412.815 384.595 408.87 379.917 408.476C375.663 408.213 370.985 411.895 366.59 413.736C366.164 413.868 365.739 414.131 365.314 414.262C362.336 415.314 361.911 417.155 361.911 419.917C362.053 428.465 362.62 437.013 361.344 445.43C358.083 466.603 346.457 481.989 323.064 488.038C321.646 488.433 320.37 489.222 317.818 490.406C357.232 506.844 395.795 507.765 435.918 493.299ZM246.93 419.917C247.781 422.547 248.064 423.862 248.631 425.046C256.146 440.432 266.921 453.32 279.255 465.682C287.195 473.704 296.41 475.677 307.185 475.151C328.168 474.099 340.786 464.367 344.756 445.693C346.315 438.065 347.733 430.306 344.756 421.89C312.289 430.043 280.248 429.649 246.93 419.917ZM510.493 426.624C493.196 430.701 477.317 432.016 461.296 431.621C444.992 431.227 429.396 427.939 412.95 423.468C412.1 435.04 411.674 445.298 415.502 455.556C419.756 466.734 427.553 474.493 440.03 476.992C446.551 478.307 453.64 478.307 460.304 478.175C463.281 478.044 466.684 476.729 469.236 475.019C485.54 463.446 498.3 448.849 508.224 432.279C508.933 430.832 509.358 429.386 510.493 426.624ZM417.629 304.058C441.873 317.34 494.188 318.261 509.358 310.107C498.867 286.436 469.945 259.345 444.567 250.008C440.88 259.082 437.62 268.419 433.224 277.361C428.688 286.304 423.017 294.852 417.629 304.058ZM309.028 253.69C273.159 268.945 240.976 314.71 239.983 341.801C253.877 347.587 277.27 350.743 284.076 347.85C283.225 347.324 282.516 346.667 281.807 346.141C272.308 339.039 270.04 328.781 275.853 319.97C281.949 310.765 293.291 308.134 304.35 313.132C305.909 313.789 307.469 314.447 310.304 315.63C305.484 294.458 305.767 274.6 309.028 253.69ZM346.883 354.689C347.166 355.609 347.166 356.398 347.45 356.793C355.531 368.234 365.597 378.097 376.939 386.777C379.775 389.012 381.901 387.96 384.453 386.251C405.436 371.916 421.032 353.637 431.665 331.543C432.374 329.965 432.799 328.387 433.366 326.414C425.71 323.784 418.338 321.811 411.391 318.787C406.854 316.814 404.302 317.735 401.041 320.759C386.296 334.436 369.425 345.088 350.285 352.584C349.009 353.11 348.017 354.031 346.883 354.689ZM389.983 308.924C363.329 293.274 343.622 272.89 328.735 248.035C319.236 279.992 322.213 310.502 337.667 340.749C357.516 333.516 374.529 323.653 389.983 308.924ZM417.204 271.049C422.166 264.211 424.718 256.583 426.986 248.824C428.688 242.906 428.546 242.643 422.308 240.933C400.049 234.621 377.365 233.569 354.539 237.12C351.278 237.646 348.017 238.829 344.047 239.881C352.695 255.794 363.187 269.076 377.365 279.86C373.253 269.997 372.686 260.791 381.901 253.427C388.565 248.035 396.646 247.377 404.444 250.665C413.659 254.479 417.062 261.843 417.204 271.049ZM410.966 395.588C416.353 399.533 422.308 401.374 428.688 401.506C433.083 401.637 436.202 399.139 437.903 395.325C439.463 391.643 438.187 388.486 435.209 385.725C432.09 382.831 428.404 382.7 424.718 384.278C419.189 386.777 414.51 390.327 410.966 395.588ZM399.482 285.12C402.884 278.808 407.138 273.153 404.869 265.92C403.31 260.791 397.639 258.161 392.818 259.739C387.147 261.58 384.453 266.578 386.864 271.707C389.416 277.23 393.385 281.701 399.482 285.12ZM309.454 339.434C308.036 332.99 305.767 327.861 301.372 323.784C298.111 320.891 293.858 320.233 290.314 321.943C286.769 323.653 284.501 326.283 284.784 330.359C284.926 334.568 287.195 337.329 291.448 338.645C296.977 340.354 302.79 340.617 309.454 339.434Z" fill="white" fill-opacity="0.08"/>
</svg>
