<svg width="45" height="25" viewBox="0 0 45 25" fill="none" xmlns="http://www.w3.org/2000/svg">
<path d="M44.2615 9.20102H41.7253V5.7806C41.7253 5.38219 41.3949 5.05181 40.9965 5.05181H36.8862V1.62167C36.8862 1.22327 36.5558 0.892883 36.1574 0.892883H31.3183C30.9199 0.892883 30.5895 1.22327 30.5895 1.62167V9.20102H14.2745V1.62167C14.2745 1.22327 13.9441 0.892883 13.5457 0.892883H8.70654C8.30814 0.892883 7.97776 1.22327 7.97776 1.62167V5.0421H3.86742C3.46901 5.0421 3.13863 5.37248 3.13863 5.77088V9.19131H0.728784C0.330382 9.19131 0 9.52169 0 9.92009V14.9536C0 15.352 0.330382 15.6823 0.728784 15.6823H3.14835V19.2291C3.14835 19.6275 3.47873 19.9579 3.87713 19.9579H7.98748V23.3783C7.98748 23.7767 8.31786 24.1071 8.71626 24.1071H13.5554C13.9538 24.1071 14.2842 23.7767 14.2842 23.3783V15.6726H30.5992V23.3783C30.5992 23.7767 30.9296 24.1071 31.328 24.1071H36.1671C36.5655 24.1071 36.8959 23.7767 36.8959 23.3783V19.9579H41.0063C41.4047 19.9579 41.735 19.6275 41.735 19.2291V15.6823H44.2712C44.6696 15.6823 45 15.352 45 14.9536V9.92009C44.9903 9.52169 44.6599 9.20102 44.2615 9.20102ZM3.14835 14.2345H1.45757V14.2248V10.6586H3.14835V14.2345V14.2345ZM7.98748 18.51H4.60592V6.50938H7.98748V18.51ZM12.8169 22.6592H9.43533V2.35045H12.8169V22.6592ZM30.5895 14.2345H14.2745V14.2248V10.6586H30.5895V14.2345ZM35.4286 22.6592H32.0471V2.35045H35.4286V22.6592ZM40.2678 18.51H36.8862V6.50938H40.2678V18.51ZM43.5327 14.2248H41.7253V10.6586H43.5327V14.2248Z" fill="#C4C4C4"/>
</svg>
