<svg width="16" height="15" viewBox="0 0 16 15" fill="none" xmlns="http://www.w3.org/2000/svg">
<g clip-path="url(#clip0_408_105)">
<path d="M1.76933 5.23974C1.95927 5.37363 2.53184 5.77131 3.48706 6.43255C4.4423 7.09379 5.17409 7.60294 5.68244 7.96C5.73829 7.99914 5.85695 8.08423 6.03847 8.21537C6.22002 8.34659 6.37087 8.45264 6.49091 8.53353C6.61103 8.61439 6.75625 8.7051 6.92671 8.80551C7.09711 8.90584 7.25774 8.98131 7.40856 9.03127C7.55941 9.08163 7.69905 9.10658 7.82751 9.10658H7.83594H7.84439C7.97285 9.10658 8.11255 9.0816 8.2634 9.03127C8.41417 8.98131 8.57494 8.90575 8.74519 8.80551C8.91553 8.70498 9.06075 8.61436 9.18088 8.53353C9.301 8.45264 9.45174 8.34659 9.63335 8.21537C9.81484 8.08411 9.93365 7.99914 9.9895 7.96C10.5033 7.60294 11.8106 6.69609 13.9109 5.23956C14.3187 4.95508 14.6594 4.61182 14.9331 4.21002C15.207 3.80839 15.3438 3.38705 15.3438 2.94625C15.3438 2.5779 15.211 2.26258 14.9456 2.00033C14.6803 1.73802 14.366 1.60693 14.003 1.60693H1.66875C1.23864 1.60693 0.907647 1.752 0.675821 2.04213C0.444024 2.33233 0.328125 2.69505 0.328125 3.13028C0.328125 3.48184 0.481795 3.8628 0.78899 4.27293C1.09615 4.6831 1.42304 5.00539 1.76933 5.23974Z" fill="#337D5A"/>
<path d="M14.5057 6.13543C12.6737 7.37416 11.2825 8.33686 10.333 9.02332C10.0146 9.2576 9.75629 9.44049 9.55792 9.57154C9.35955 9.70268 9.09574 9.83661 8.76609 9.97326C8.43656 10.1101 8.12945 10.1783 7.84451 10.1783H7.83597H7.82754C7.54265 10.1783 7.23537 10.1101 6.90584 9.97326C6.57631 9.83661 6.31232 9.70268 6.11401 9.57154C5.91576 9.44049 5.65737 9.2576 5.339 9.02332C4.58482 8.4709 3.19668 7.50815 1.17452 6.13543C0.856022 5.92352 0.573921 5.68062 0.328125 5.40723V12.0532C0.328125 12.4218 0.459344 12.7369 0.721928 12.9992C0.984453 13.2616 1.30013 13.3927 1.66884 13.3927H14.0032C14.3718 13.3927 14.6874 13.2616 14.95 12.9992C15.2126 12.7368 15.3438 12.4218 15.3438 12.0532V5.40723C15.1035 5.67496 14.8243 5.91786 14.5057 6.13543Z" fill="#337D5A"/>
</g>
<defs>
<clipPath id="clip0_408_105">
<rect width="15.0156" height="15" fill="white" transform="translate(0.328125)"/>
</clipPath>
</defs>
</svg>
