<svg width="16" height="15" viewBox="0 0 16 15" fill="none" xmlns="http://www.w3.org/2000/svg">
<path d="M14.926 4.54455C14.5392 4.31777 14.2607 3.96207 14.3095 3.61325C14.4817 2.38206 13.55 1.3305 12.0439 1.13863C11.7765 1.10451 11.5102 1.01154 11.2691 0.906956C10.8147 0.709724 10.3412 0.637091 9.85155 0.747688C9.58712 0.807467 9.42443 0.780784 9.21428 0.626707C8.01548 -0.252353 6.13669 0.0618164 5.54936 1.25492C5.38075 1.59759 5.1314 1.7976 4.74047 1.92796C4.65319 1.95709 4.5574 1.98996 4.4954 2.04375C4.30026 2.213 4.1143 2.17125 3.87789 2.0898C2.35173 1.56333 0.708183 2.42963 0.644574 3.7693C0.635544 3.96064 0.537573 4.16838 0.410847 4.33337C-0.0428307 4.92454 -0.123051 5.51761 0.181497 6.1321C-0.0378073 6.57578 0.153452 7.12897 0.693637 7.44988C1.28637 7.80211 1.96989 7.61831 2.49371 7.27736C2.64198 7.26595 2.79286 7.24161 2.9469 7.20342C3.25483 7.12695 3.53285 7.03559 3.79249 7.13743C3.8336 7.16217 3.87585 7.18415 3.91872 7.20445C3.93019 7.21218 3.94162 7.21942 3.95306 7.22806C3.95457 7.22614 3.95583 7.22459 3.95734 7.22267C4.04283 7.26003 4.13149 7.28834 4.22229 7.30993C4.72601 8.75173 5.80885 10.0146 7.29584 10.9096C7.2052 11.7915 6.91535 12.6561 6.37529 13.5034C5.77248 13.8019 5.03706 13.586 4.40584 13.4445C3.84781 13.3193 3.30448 13.2732 2.74735 13.4171C2.63205 13.447 2.57837 13.5208 2.5727 13.5973C2.57196 13.5995 2.57082 13.6012 2.57017 13.6034C2.52792 13.7505 2.48567 13.8975 2.44341 14.0445C2.40394 14.182 2.52629 14.2762 2.65893 14.2948C2.67967 14.2991 2.70167 14.302 2.72608 14.302H13.0367C13.1271 14.302 13.1914 14.2698 13.2313 14.2242C13.2907 14.1866 13.3301 14.129 13.3301 14.0643V13.7588C13.3301 13.6684 13.2536 13.591 13.1512 13.5651C13.1121 13.5385 13.0605 13.5212 12.9947 13.5212H9.87925C9.72448 13.3764 9.56691 13.2302 9.40422 13.0855C8.95156 12.6829 8.75188 12.2348 8.95535 11.6927C9.02601 11.5045 9.07693 11.3086 9.10633 11.1132C9.1932 10.5342 9.27444 9.95238 9.35682 9.36213C10.4025 9.28148 11.348 8.92039 12.0821 8.30772C12.3866 8.30712 12.66 8.23399 12.8879 8.10984L12.9794 8.08683C13.4762 8.4115 14.2425 8.445 14.8214 8.27188C15.3578 8.11146 15.8217 7.67694 15.8379 7.19923C15.8394 7.1545 15.8366 7.11022 15.8319 7.06632C16.2495 6.19532 15.8676 5.09674 14.926 4.54455ZM5.83169 7.16848C5.8376 7.16666 5.8425 7.16521 5.84839 7.16339C5.95641 7.13009 6.14465 7.16828 6.24185 7.22946C6.3789 7.31582 6.50852 7.40992 6.63528 7.50564C6.6378 7.51377 6.63793 7.52131 6.64107 7.52967C6.83458 8.05341 7.02812 8.57726 7.2216 9.101C7.26776 9.36497 7.29716 9.6272 7.31313 9.88808C6.3119 9.2213 5.76416 8.23127 5.83169 7.16848ZM9.58793 8.68229C9.6332 8.59449 9.67856 8.50673 9.72575 8.41934C9.74146 8.41934 9.7573 8.41934 9.77302 8.41924C9.77302 8.38899 9.77388 8.35864 9.77515 8.32821C9.90428 8.09369 10.0454 7.86436 10.2038 7.64521C10.4056 7.78931 10.6158 7.91875 10.8398 8.02433C10.4648 8.29275 10.0445 8.51314 9.58793 8.68229Z" fill="#337D5A"/>
</svg>
