<svg width="17" height="16" viewBox="0 0 17 16" fill="none" xmlns="http://www.w3.org/2000/svg">
<g clip-path="url(#clip0_408_100)">
<path d="M16.1442 7.81246C16.4345 7.49348 16.4065 7.00457 16.0816 6.72073L8.92349 0.463913C8.59859 0.180081 8.07769 0.186026 7.75962 0.477317L0.57723 7.05432C0.259166 7.34561 0.243555 7.8339 0.542667 8.14448L0.72274 8.33183C1.02149 8.64242 1.50438 8.67945 1.80062 8.41429L2.33739 7.93409V14.9643C2.33739 15.3956 2.68725 15.7448 3.11872 15.7448H5.91843C6.3499 15.7448 6.69976 15.3956 6.69976 14.9643V10.046H10.2708V14.9643C10.2646 15.3953 10.5733 15.7445 11.0048 15.7445H13.9718C14.4033 15.7445 14.7531 15.3953 14.7531 14.964V8.03308C14.7531 8.03308 14.9014 8.16284 15.0843 8.32343C15.2669 8.48371 15.6503 8.3552 15.9407 8.0359L16.1442 7.81246Z" fill="#337D5A"/>
</g>
<defs>
<clipPath id="clip0_408_100">
<rect width="16.0167" height="16" fill="white" transform="translate(0.328125)"/>
</clipPath>
</defs>
</svg>
