<svg width="33" height="37" viewBox="0 0 33 37" fill="none" xmlns="http://www.w3.org/2000/svg">
<path d="M31.3465 6.3725L20.051 0.255928C18.9795 -0.324476 17.5061 0.121988 16.9257 1.1935L10.318 13.4713H2.28168C1.25481 13.4713 0.451172 14.2749 0.451172 15.3018V18.5163V35.1695C0.451172 36.1964 1.25481 37 2.28168 37H27.9534C28.9803 37 29.7839 36.1964 29.7839 35.1695V30.5263H30.5429C30.9447 30.5263 31.2573 30.2137 31.2573 29.8119V24.499C31.2573 24.0972 30.9447 23.7846 30.5429 23.7846H29.7839V18.561C29.7839 17.7127 29.1589 16.9537 28.3552 16.7751L32.2841 9.49775C32.8645 8.38159 32.4627 6.99755 31.3465 6.3725ZM23.3102 3.64906L16.256 16.7305H14.2469L21.7922 2.84543L23.3102 3.64906ZM18.2205 1.8632C18.4437 1.46138 18.9795 1.2828 19.3813 1.50603L20.4974 2.13108L12.6397 16.7305H10.1841L18.2205 1.8632ZM1.83521 15.2572C1.83521 15.1232 2.0138 14.9 2.23703 14.9H9.51441L8.53219 16.6858H2.23703C2.10309 16.6858 1.96915 16.6858 1.83521 16.7305V15.2572V15.2572ZM28.3106 35.1695C28.3106 35.3927 28.132 35.5713 27.9088 35.5713H2.23703C2.0138 35.5713 1.83521 35.3927 1.83521 35.1695V18.561C1.83521 18.3378 2.0138 18.1592 2.23703 18.1592H8.97865H11.836H17.0597H27.1051H27.8641C28.0874 18.1592 28.2659 18.3378 28.2659 18.561V23.7846H25.5425C24.337 23.7846 23.3995 24.7669 23.3995 25.9277V28.3832C23.3995 29.5887 24.3817 30.5263 25.5425 30.5263H28.3106V35.1695ZM29.7393 25.2133H29.7839V29.0976H29.7393H25.5425C25.1407 29.0976 24.8282 28.785 24.8282 28.3832V25.9277C24.8282 25.5258 25.1407 25.2133 25.5425 25.2133H29.7393V25.2133ZM30.9894 8.78341L26.7033 16.7305H17.8633L24.5603 4.36341L30.6322 7.66725C31.0787 7.84583 31.2126 8.38159 30.9894 8.78341Z" fill="#C4C4C4"/>
</svg>
