<svg width="15" height="14" viewBox="0 0 15 14" fill="none" xmlns="http://www.w3.org/2000/svg">
<g clip-path="url(#clip0_408_133)">
<path d="M14.314 10.8474C14.2744 10.7281 14.0222 10.5524 13.5576 10.3206C13.4318 10.2475 13.2524 10.1482 13.0204 10.0222C12.7881 9.89627 12.5773 9.7802 12.3883 9.67412C12.199 9.56807 12.0215 9.46533 11.8558 9.36605C11.8293 9.34616 11.7463 9.28825 11.607 9.19192C11.4675 9.09587 11.3499 9.02458 11.2535 8.97808C11.1573 8.93187 11.0627 8.90861 10.9698 8.90861C10.8371 8.90861 10.6714 9.00312 10.4724 9.19192C10.2734 9.38095 10.0908 9.58629 9.92503 9.80855C9.75919 10.0307 9.5833 10.236 9.3977 10.425C9.21181 10.614 9.05908 10.7084 8.93978 10.7084C8.87989 10.7084 8.80521 10.6917 8.71572 10.6588C8.62626 10.6257 8.55821 10.5973 8.5115 10.5744C8.4652 10.551 8.38575 10.5048 8.27287 10.435C8.15977 10.3653 8.09688 10.3272 8.08363 10.3206C7.1746 9.81666 6.39497 9.23994 5.74462 8.59054C5.09447 7.94076 4.51708 7.16201 4.01279 6.25382C4.00617 6.24055 3.96793 6.17755 3.89831 6.06492C3.82858 5.95219 3.78211 5.87275 3.75889 5.82622C3.73567 5.77987 3.70747 5.71189 3.67435 5.62242C3.64123 5.53295 3.6246 5.45843 3.6246 5.3987C3.6246 5.27945 3.71918 5.12692 3.90831 4.94129C4.09741 4.75577 4.30316 4.58004 4.52537 4.41444C4.74776 4.24885 4.95331 4.0665 5.14247 3.86771C5.33157 3.66882 5.42611 3.50319 5.42611 3.37064C5.42611 3.2779 5.40289 3.18334 5.35649 3.08726C5.31006 2.99097 5.23873 2.87346 5.14247 2.73419C5.04618 2.59499 4.98814 2.51221 4.9682 2.48557C4.86877 2.31997 4.76603 2.14267 4.65973 1.95374C4.55344 1.76484 4.43742 1.55429 4.31129 1.32231C4.18526 1.09044 4.0858 0.911398 4.01272 0.785467C3.78061 0.321549 3.6048 0.0695476 3.48533 0.0299156C3.43886 0.0100299 3.36913 0 3.27633 0C3.09707 0 2.86321 0.0330847 2.57458 0.0994632C2.28585 0.165737 2.05866 0.23525 1.89275 0.30828C1.56096 0.44741 1.20931 0.851741 0.837673 1.52113C0.499265 2.1441 0.330078 2.7607 0.330078 3.37046C0.330078 3.5493 0.341687 3.72329 0.364906 3.89247C0.388124 4.06148 0.42961 4.25209 0.489399 4.46425C0.549083 4.67634 0.597228 4.83389 0.633624 4.93649C0.670055 5.03915 0.738072 5.22307 0.837639 5.48831C0.937066 5.75347 0.996855 5.9158 1.01676 5.97545C1.24898 6.6251 1.52436 7.20506 1.84282 7.7155C2.3668 8.56393 3.08187 9.44075 3.98759 10.3456C4.89335 11.2504 5.7709 11.9647 6.62029 12.4883C7.13119 12.8064 7.71197 13.0815 8.36218 13.3136C8.42194 13.3334 8.58443 13.393 8.84977 13.4927C9.11521 13.592 9.29939 13.66 9.40216 13.6965C9.50497 13.733 9.66272 13.7811 9.87486 13.8408C10.0874 13.9005 10.2781 13.942 10.4473 13.9653C10.6166 13.9882 10.7908 14 10.9698 14C11.5802 14 12.1975 13.8309 12.8212 13.4929C13.4912 13.1218 13.8958 12.7704 14.0352 12.4387C14.1085 12.2732 14.1779 12.0462 14.2442 11.7577C14.3108 11.4694 14.3438 11.2359 14.3438 11.0568C14.344 10.9637 14.334 10.8942 14.314 10.8474Z" fill="#337D5A"/>
</g>
<defs>
<clipPath id="clip0_408_133">
<rect width="14.0146" height="14" fill="white" transform="translate(0.328125)"/>
</clipPath>
</defs>
</svg>
