<svg width="26" height="26" viewBox="0 0 26 26" fill="none" xmlns="http://www.w3.org/2000/svg">
<path d="M5.70732 10.5649C8.84538 10.5649 11.3893 13.1088 11.3893 16.2468C11.3893 19.3848 8.84538 21.9288 5.70732 21.9288C2.56926 21.9288 0.0253659 19.3848 0.0253659 16.2468L0 15.4351C0 9.15901 5.08778 4.07123 11.3639 4.07123V7.31806C9.19578 7.31806 7.15738 8.16239 5.62427 9.6955C5.32916 9.99066 5.05983 10.3047 4.81687 10.6345C5.10701 10.5889 5.40435 10.5649 5.70732 10.5649ZM20.318 10.5649C23.4561 10.5649 26 13.1088 26 16.2468C26 19.3848 23.4561 21.9288 20.318 21.9288C17.18 21.9288 14.6361 19.3848 14.6361 16.2468L14.6107 15.4351C14.6107 9.15901 19.6985 4.07123 25.9746 4.07123V7.31806C23.8066 7.31806 21.7681 8.16239 20.235 9.6955C19.9398 9.99066 19.6705 10.3047 19.4276 10.6345C19.7177 10.5889 20.015 10.5649 20.318 10.5649Z" fill="#337D5A"/>
</svg>
