<svg width="34" height="34" viewBox="0 0 34 34" fill="none" xmlns="http://www.w3.org/2000/svg">
<path d="M33.5116 6.34908L17.1991 0.161577C17.0709 0.112645 16.9291 0.112645 16.8009 0.161577L0.488375 6.34908C0.381583 6.3895 0.289621 6.46146 0.224714 6.55541C0.159807 6.64935 0.125028 6.76083 0.125 6.87501V27.125C0.124968 27.2388 0.15947 27.35 0.223948 27.4438C0.288425 27.5376 0.379843 27.6096 0.486125 27.6504L16.7986 33.9166C16.9278 33.9659 17.0705 33.9659 17.1997 33.9166L33.5122 27.7066C33.6188 27.6662 33.7106 27.5942 33.7754 27.5004C33.8402 27.4066 33.8749 27.2953 33.875 27.1813V6.87501C33.875 6.76083 33.8402 6.64935 33.7753 6.55541C33.7104 6.46146 33.6184 6.3895 33.5116 6.34908ZM17 1.28883L31.7268 6.87501L17 12.4612L12.5264 10.7641L19.5279 8.11251C19.6346 8.07203 19.7265 8.00004 19.7913 7.9061C19.8562 7.81216 19.8909 7.70072 19.8909 7.58658C19.8909 7.47243 19.8562 7.36099 19.7913 7.26705C19.7265 7.17311 19.6346 7.10112 19.5279 7.06064L15.3316 5.46876C15.2031 5.42006 15.0613 5.42006 14.9328 5.46876L6.74731 8.57208L2.27319 6.87501L17 1.28883ZM7.4375 10.0368L10.25 11.1056V19.5071L7.4375 18.4299V10.0368ZM8.333 9.17339L15.1325 6.59376L17.7419 7.58377L10.9402 10.1623L8.333 9.17339ZM1.25 7.69008L6.3125 9.61045V18.8169C6.31251 18.9308 6.3471 19.042 6.41168 19.1358C6.47626 19.2296 6.5678 19.3016 6.67419 19.3423L10.6117 20.8498C10.6969 20.8823 10.7887 20.8937 10.8792 20.8829C10.9698 20.872 11.0563 20.8394 11.1314 20.7877C11.2065 20.736 11.2679 20.6668 11.3104 20.5861C11.3528 20.5054 11.375 20.4156 11.375 20.3244V11.5303L16.4375 13.4506V32.5723L1.25 26.7386V7.69008ZM17.5625 32.5751V13.4501L32.75 7.69008V26.7937L17.5625 32.5751Z" fill="#C4C4C4"/>
<path d="M22.9866 27.1357L19.6037 28.4232C19.4807 28.4699 19.3779 28.5583 19.3132 28.6729C19.2486 28.7876 19.2262 28.9212 19.25 29.0507C19.2737 29.1801 19.3421 29.2972 19.4432 29.3814C19.5443 29.4656 19.6718 29.5117 19.8034 29.5117C19.8719 29.5118 19.9398 29.4992 20.0037 29.4746L23.3865 28.187C23.4569 28.1617 23.5214 28.1226 23.5765 28.0721C23.6315 28.0216 23.676 27.9606 23.7072 27.8927C23.7384 27.8248 23.7558 27.7514 23.7583 27.6767C23.7608 27.602 23.7484 27.5276 23.7219 27.4577C23.6953 27.3879 23.6551 27.324 23.6035 27.2699C23.552 27.2158 23.4902 27.1724 23.4218 27.1425C23.3533 27.1125 23.2796 27.0964 23.2049 27.0953C23.1302 27.0941 23.056 27.1079 22.9866 27.1357Z" fill="#C4C4C4"/>
<path d="M26.3586 25.8521L25.2263 26.283C25.1032 26.3296 25.0004 26.418 24.9358 26.5326C24.8712 26.6473 24.8488 26.781 24.8725 26.9104C24.8963 27.0399 24.9647 27.1569 25.0658 27.2411C25.1669 27.3253 25.2944 27.3714 25.426 27.3714C25.4944 27.3715 25.5623 27.3589 25.6262 27.3343L26.7585 26.9034C26.8289 26.8781 26.8934 26.839 26.9485 26.7885C27.0035 26.738 27.048 26.677 27.0792 26.6091C27.1104 26.5412 27.1278 26.4678 27.1303 26.3931C27.1328 26.3184 27.1204 26.244 27.0939 26.1741C27.0673 26.1043 27.0271 26.0404 26.9755 25.9863C26.924 25.9322 26.8622 25.8888 26.7938 25.8589C26.7253 25.8289 26.6516 25.8128 26.5769 25.8117C26.5022 25.8105 26.428 25.8243 26.3586 25.8521Z" fill="#C4C4C4"/>
<path d="M22.9866 24.8857L19.6037 26.1732C19.4807 26.2199 19.3779 26.3083 19.3132 26.4229C19.2486 26.5376 19.2262 26.6712 19.25 26.8007C19.2737 26.9301 19.3421 27.0472 19.4432 27.1314C19.5443 27.2156 19.6718 27.2617 19.8034 27.2617C19.8719 27.2618 19.9398 27.2492 20.0037 27.2246L23.3865 25.937C23.4569 25.9117 23.5214 25.8726 23.5765 25.8221C23.6315 25.7716 23.676 25.7106 23.7072 25.6427C23.7384 25.5748 23.7558 25.5014 23.7583 25.4267C23.7608 25.352 23.7484 25.2776 23.7219 25.2077C23.6953 25.1379 23.6551 25.074 23.6035 25.0199C23.552 24.9658 23.4902 24.9224 23.4218 24.8925C23.3533 24.8625 23.2796 24.8464 23.2049 24.8453C23.1302 24.8441 23.056 24.8579 22.9866 24.8857Z" fill="#C4C4C4"/>
<path d="M26.3586 23.6021L25.2263 24.033C25.1032 24.0796 25.0004 24.168 24.9358 24.2826C24.8712 24.3973 24.8488 24.531 24.8725 24.6604C24.8963 24.7899 24.9647 24.9069 25.0658 24.9911C25.1669 25.0753 25.2944 25.1214 25.426 25.1214C25.4944 25.1215 25.5623 25.1089 25.6262 25.0843L26.7585 24.6534C26.8289 24.6281 26.8934 24.589 26.9485 24.5385C27.0035 24.488 27.048 24.427 27.0792 24.3591C27.1104 24.2912 27.1278 24.2178 27.1303 24.1431C27.1328 24.0684 27.1204 23.994 27.0939 23.9241C27.0673 23.8543 27.0271 23.7904 26.9755 23.7363C26.924 23.6822 26.8622 23.6388 26.7938 23.6089C26.7253 23.5789 26.6516 23.5628 26.5769 23.5617C26.5022 23.5605 26.428 23.5743 26.3586 23.6021Z" fill="#C4C4C4"/>
<path d="M22.9866 22.6357L19.6037 23.9233C19.4807 23.9699 19.3779 24.0583 19.3132 24.1729C19.2486 24.2876 19.2262 24.4212 19.25 24.5507C19.2737 24.6801 19.3421 24.7972 19.4432 24.8814C19.5443 24.9656 19.6718 25.0117 19.8034 25.0117C19.8719 25.0118 19.9398 24.9992 20.0037 24.9746L23.3865 23.687C23.4569 23.6617 23.5214 23.6226 23.5765 23.5721C23.6315 23.5216 23.676 23.4606 23.7072 23.3927C23.7384 23.3248 23.7558 23.2514 23.7583 23.1767C23.7608 23.102 23.7484 23.0276 23.7219 22.9577C23.6953 22.8879 23.6551 22.824 23.6035 22.7699C23.552 22.7158 23.4902 22.6724 23.4218 22.6425C23.3533 22.6125 23.2796 22.5964 23.2049 22.5953C23.1302 22.5941 23.056 22.6079 22.9866 22.6357Z" fill="#C4C4C4"/>
<path d="M26.3586 21.3521L25.2263 21.783C25.1032 21.8296 25.0004 21.918 24.9358 22.0326C24.8712 22.1473 24.8488 22.281 24.8725 22.4104C24.8963 22.5399 24.9647 22.6569 25.0658 22.7411C25.1669 22.8253 25.2944 22.8714 25.426 22.8714C25.4944 22.8715 25.5623 22.8589 25.6262 22.8343L26.7585 22.4034C26.8289 22.3781 26.8934 22.339 26.9485 22.2885C27.0035 22.238 27.048 22.177 27.0792 22.1091C27.1104 22.0412 27.1278 21.9678 27.1303 21.8931C27.1328 21.8184 27.1204 21.744 27.0939 21.6741C27.0673 21.6043 27.0271 21.5404 26.9755 21.4863C26.924 21.4322 26.8622 21.3888 26.7938 21.3589C26.7253 21.3289 26.6516 21.3128 26.5769 21.3117C26.5022 21.3105 26.428 21.3243 26.3586 21.3521Z" fill="#C4C4C4"/>
</svg>
