<svg width="49" height="64" viewBox="0 0 49 64" fill="none" xmlns="http://www.w3.org/2000/svg">
<g clip-path="url(#clip0_165_23)">
<path d="M0.525665 33.435C0.686449 28.7547 1.28135 24.1881 2.93742 19.8004C5.79937 12.2112 11.1052 7.31961 18.9193 5.25573C20.913 4.71945 22.6656 3.9069 23.7428 1.95678C24.386 0.786712 25.5275 0.689206 26.5405 1.58301C27.3122 2.26555 27.9875 3.02935 28.7432 3.72814C30.0938 4.99572 31.6855 5.90577 33.4381 6.47456C42.3294 9.26973 47.1529 15.6076 48.3267 24.7244C49.5325 34.085 48.0533 43.153 43.9855 51.6686C41.22 57.4539 36.7985 61.3867 30.4475 62.768C28.8879 63.1093 27.264 63.1905 25.6722 63.353C24.5628 63.4668 23.4373 63.4668 22.3119 63.5643C14.6586 64.2468 9.11151 60.9641 5.34918 54.3662C3.1786 50.5472 2.06919 46.3707 1.44213 42.0642C1.02409 39.2041 0.815076 36.3114 0.525665 33.435ZM25.0773 3.95566C24.9809 3.95566 24.9005 3.95566 24.804 3.9394C23.4534 5.74326 21.5401 6.60457 19.4499 7.1571C15.8323 8.11591 12.5844 9.77351 9.91543 12.4549C6.21741 16.1276 4.288 20.6942 3.33938 25.7482C2.19782 31.8424 2.53546 37.9202 3.75742 43.9818C4.62565 48.2721 6.00839 52.3511 8.72563 55.8288C12.1503 60.2166 16.588 62.313 22.1672 61.5817C22.4887 61.5329 22.955 61.2566 23.0354 60.9804C23.9679 57.8277 24.1769 54.6912 23.0515 51.5061C21.2668 46.4845 20.5272 41.3004 21.5079 36.0189C22.1028 32.7524 22.955 29.5347 23.8554 26.3333C25.3828 20.9379 26.6369 15.5264 25.9938 9.87102C25.7687 7.87214 25.3828 5.92203 25.0773 3.95566ZM25.0291 61.3216C25.3024 61.3542 25.4793 61.3867 25.6562 61.3867C32.1197 61.2404 37.313 58.7052 40.9467 53.1799C43.069 49.9297 44.3553 46.322 45.2075 42.568C46.5259 36.6851 47.3298 30.7373 46.4133 24.6919C45.1592 16.5827 40.9788 10.8786 33.004 8.39218C31.2032 7.82339 29.5471 6.94584 28.0679 5.74326C27.8428 5.5645 27.6177 5.38574 27.2962 5.12573C27.3283 5.4345 27.3283 5.59701 27.3605 5.74326C28.1965 10.0823 28.4699 14.47 27.5856 18.8091C26.8299 22.5305 25.8973 26.2358 24.7879 29.876C22.5852 37.1564 22.4083 44.3394 25.1095 51.5223C25.415 52.3511 25.5436 53.2449 25.6722 54.1387C26.0099 56.5439 25.6401 58.884 25.0291 61.3216Z" fill="white"/>
<path d="M9.75466 34.2152C9.62603 32.9801 9.46525 31.745 9.3527 30.51C8.9829 26.0897 10.1405 22.1569 13.0025 18.7605C13.5331 18.1267 14.1441 18.0292 14.5942 18.4192C15.0605 18.8255 15.0123 19.4105 14.4817 20.0606C11.7001 23.392 10.8319 27.2435 11.4429 31.5175C11.9735 35.174 11.7001 38.7492 10.3817 42.2269C10.2531 42.5844 10.0923 42.9257 9.89936 43.2507C9.5778 43.8033 9.09544 43.9983 8.5327 43.6895C8.00211 43.397 7.88957 42.9095 8.1629 42.3569C9.11152 40.4393 9.52956 38.3754 9.65819 36.2628C9.70642 35.5965 9.65819 34.914 9.65819 34.2314C9.69034 34.2152 9.7225 34.2152 9.75466 34.2152Z" fill="white"/>
<path d="M22.0546 16.9566C21.8456 19.508 21.2185 21.8969 20.3503 24.2371C20.077 24.9521 19.5464 25.2446 18.9836 24.9846C18.3405 24.6759 18.2923 24.1396 18.5173 23.5383C19.257 21.5557 19.884 19.5405 19.9001 17.4117C19.9162 16.4041 19.7071 15.3803 19.4981 14.4052C19.3695 13.7877 19.3856 13.3002 19.9805 13.0401C20.6075 12.7801 21.1381 13.0239 21.315 13.6739C21.6205 14.7465 21.8134 15.8516 22.0546 16.9566Z" fill="white"/>
<path d="M18.7907 48.4022C18.6781 50.4823 18.3566 52.4974 17.633 54.4475C17.5527 54.6425 17.4723 54.8538 17.3758 55.0488C17.1025 55.6176 16.6683 55.8939 16.0734 55.6339C15.4625 55.3738 15.366 54.8538 15.5911 54.285C16.797 51.2948 17.0221 48.2072 16.395 45.0545C16.2825 44.4694 16.5076 44.0144 17.1025 43.8681C17.7134 43.7219 18.1797 43.9982 18.2923 44.6319C18.4852 45.8995 18.6299 47.1508 18.7907 48.4022Z" fill="white"/>
<path d="M42.7475 34.2964C42.7153 38.6517 41.9436 41.9832 39.7087 44.8596C39.3871 45.2821 39.0173 45.6884 38.5993 46.0134C38.1812 46.3547 37.6024 46.3384 37.3291 45.8671C37.1522 45.5421 37.104 44.8596 37.313 44.6483C40.9949 40.7156 41.22 36.019 40.3679 31.0625C40.3518 30.9812 40.3357 30.9 40.3357 30.8187C40.2392 30.2012 40.4322 29.7137 41.0753 29.5836C41.7345 29.4536 42.1526 29.7949 42.249 30.4775C42.442 32.0213 42.6349 33.5326 42.7475 34.2964Z" fill="white"/>
<path d="M32.9075 47.8335C32.8914 50.4987 32.4895 53.0989 31.7338 55.6665C31.5569 56.2515 31.2353 56.6416 30.5761 56.5441C30.0134 56.4628 29.7561 56.0728 29.7561 55.5203C29.7561 55.309 29.8526 55.0977 29.9169 54.9027C30.9942 50.905 31.3961 46.891 30.335 42.812C30.2063 42.3245 30.0295 41.8369 29.8687 41.3494C29.6597 40.7156 29.7561 40.2118 30.4153 39.9681C31.0906 39.7243 31.4765 40.0981 31.7177 40.6994C32.4895 42.7632 32.8593 44.9084 32.9075 47.1185C32.9075 47.346 32.9075 47.5898 32.9075 47.8335Z" fill="white"/>
<path d="M34.6279 19.8006C34.3063 23.4895 35.0298 26.9997 36.6055 30.3312C36.9432 31.0462 36.8306 31.615 36.2679 31.8588C35.5765 32.1676 35.1424 31.8263 34.853 31.225C33.1326 27.6823 32.3769 23.9446 32.6342 19.9956C32.6502 19.8656 32.6824 19.7356 32.6985 19.5893C32.7789 18.9393 33.1326 18.6142 33.7757 18.663C34.3385 18.6955 34.6761 19.1505 34.6279 19.8006Z" fill="white"/>
</g>
<defs>
<clipPath id="clip0_165_23">
<rect width="48.2029" height="62.6638" fill="white" transform="translate(0.525665 0.981934)"/>
</clipPath>
</defs>
</svg>
